{
	"asset":{
		"generator":"Khronos glTF Blender I/O v4.4.56",
		"version":"2.0"
	},
	"scene":0,
	"scenes":[
		{
			"name":"Scene",
			"nodes":[
				0,
				1,
				2,
				3,
				4,
				5,
				6,
				7,
				8,
				9,
				10,
				11
			]
		}
	],
	"nodes":[
		{
			"mesh":0,
			"name":"Cube"
		},
		{
			"mesh":1,
			"name":"Cube.001",
			"rotation":[
				1,
				0,
				0,
				4.371138828673793e-08
			],
			"translation":[
				-5.364629745483398,
				-1.5806212425231934,
				1.7395823001861572
			]
		},
		{
			"mesh":2,
			"name":"Cube.002",
			"translation":[
				-0.5942926406860352,
				1.9170162677764893,
				-0.4411020278930664
			]
		},
		{
			"mesh":3,
			"name":"Cube.003",
			"translation":[
				1.4538373947143555,
				0.5479865074157715,
				5.743503570556641
			]
		},
		{
			"mesh":4,
			"name":"Cube.004",
			"translation":[
				4.754541397094727,
				0.419114351272583,
				4.029942989349365
			]
		},
		{
			"mesh":5,
			"name":"Cube.005",
			"translation":[
				1.3396368026733398,
				0.8136317729949951,
				-5.400557041168213
			]
		},
		{
			"mesh":6,
			"name":"Cube.006",
			"translation":[
				4.878389358520508,
				0.7655291557312012,
				-1.2087044715881348
			]
		},
		{
			"mesh":7,
			"name":"Cube.007",
			"rotation":[
				1,
				0,
				0,
				4.371138828673793e-08
			],
			"translation":[
				6.620091915130615,
				-1.8669328689575195,
				0.9038171768188477
			]
		},
		{
			"mesh":8,
			"name":"Cube.008",
			"translation":[
				-57.21982955932617,
				0.9825942516326904,
				7.597949504852295
			]
		},
		{
			"mesh":9,
			"name":"Cube.009",
			"translation":[
				-15.501327514648438,
				4.081489562988281,
				6.661923408508301
			]
		},
		{
			"mesh":10,
			"name":"Cube.010",
			"translation":[
				7.234268665313721,
				2.3375916481018066,
				-11.396746635437012
			]
		},
		{
			"mesh":11,
			"name":"Cube.011",
			"rotation":[
				1,
				0,
				0,
				4.371138828673793e-08
			],
			"translation":[
				5.913075923919678,
				-3.4273719787597656,
				11.927845001220703
			]
		}
	],
	"materials":[
		{
			"doubleSided":true,
			"name":"Material",
			"pbrMetallicRoughness":{
				"baseColorFactor":[
					0.800000011920929,
					0.800000011920929,
					0.800000011920929,
					1
				],
				"metallicFactor":0,
				"roughnessFactor":0.5
			}
		}
	],
	"meshes":[
		{
			"name":"Cube",
			"primitives":[
				{
					"attributes":{
						"POSITION":0,
						"NORMAL":1,
						"TEXCOORD_0":2
					},
					"indices":3,
					"material":0
				}
			]
		},
		{
			"name":"Cube.001",
			"primitives":[
				{
					"attributes":{
						"POSITION":4,
						"NORMAL":5,
						"TEXCOORD_0":6
					},
					"indices":7
				}
			]
		},
		{
			"name":"Cube.002",
			"primitives":[
				{
					"attributes":{
						"POSITION":8,
						"NORMAL":9,
						"TEXCOORD_0":10
					},
					"indices":7
				}
			]
		},
		{
			"name":"Cube.003",
			"primitives":[
				{
					"attributes":{
						"POSITION":11,
						"NORMAL":12,
						"TEXCOORD_0":13
					},
					"indices":7
				}
			]
		},
		{
			"name":"Cube.004",
			"primitives":[
				{
					"attributes":{
						"POSITION":14,
						"NORMAL":15,
						"TEXCOORD_0":16
					},
					"indices":7
				}
			]
		},
		{
			"name":"Cube.005",
			"primitives":[
				{
					"attributes":{
						"POSITION":17,
						"NORMAL":18,
						"TEXCOORD_0":19
					},
					"indices":7
				}
			]
		},
		{
			"name":"Cube.006",
			"primitives":[
				{
					"attributes":{
						"POSITION":20,
						"NORMAL":21,
						"TEXCOORD_0":22
					},
					"indices":7
				}
			]
		},
		{
			"name":"Cube.007",
			"primitives":[
				{
					"attributes":{
						"POSITION":23,
						"NORMAL":24,
						"TEXCOORD_0":25
					},
					"indices":7
				}
			]
		},
		{
			"name":"Cube.008",
			"primitives":[
				{
					"attributes":{
						"POSITION":26,
						"NORMAL":27,
						"TEXCOORD_0":28
					},
					"indices":7
				}
			]
		},
		{
			"name":"Cube.009",
			"primitives":[
				{
					"attributes":{
						"POSITION":29,
						"NORMAL":30,
						"TEXCOORD_0":31
					},
					"indices":7
				}
			]
		},
		{
			"name":"Cube.010",
			"primitives":[
				{
					"attributes":{
						"POSITION":32,
						"NORMAL":33,
						"TEXCOORD_0":34
					},
					"indices":7
				}
			]
		},
		{
			"name":"Cube.011",
			"primitives":[
				{
					"attributes":{
						"POSITION":35,
						"NORMAL":36,
						"TEXCOORD_0":37
					},
					"indices":7
				}
			]
		}
	],
	"accessors":[
		{
			"bufferView":0,
			"componentType":5126,
			"count":120,
			"max":[
				4.6163482666015625,
				4.26436710357666,
				3.8378899097442627
			],
			"min":[
				-5.5059051513671875,
				-1,
				-2.1741209030151367
			],
			"type":"VEC3"
		},
		{
			"bufferView":1,
			"componentType":5126,
			"count":120,
			"type":"VEC3"
		},
		{
			"bufferView":2,
			"componentType":5126,
			"count":120,
			"type":"VEC2"
		},
		{
			"bufferView":3,
			"componentType":5123,
			"count":180,
			"type":"SCALAR"
		},
		{
			"bufferView":4,
			"componentType":5126,
			"count":24,
			"max":[
				0.43929290771484375,
				1.5806212425231934,
				0.24612832069396973
			],
			"min":[
				-0.43929290771484375,
				-1.5806212425231934,
				-0.24612832069396973
			],
			"type":"VEC3"
		},
		{
			"bufferView":5,
			"componentType":5126,
			"count":24,
			"type":"VEC3"
		},
		{
			"bufferView":6,
			"componentType":5126,
			"count":24,
			"type":"VEC2"
		},
		{
			"bufferView":7,
			"componentType":5123,
			"count":36,
			"type":"SCALAR"
		},
		{
			"bufferView":8,
			"componentType":5126,
			"count":24,
			"max":[
				3.3833742141723633,
				1.9170162677764893,
				2.0170745849609375
			],
			"min":[
				-3.3833742141723633,
				-1.9170162677764893,
				-2.0170745849609375
			],
			"type":"VEC3"
		},
		{
			"bufferView":9,
			"componentType":5126,
			"count":24,
			"type":"VEC3"
		},
		{
			"bufferView":10,
			"componentType":5126,
			"count":24,
			"type":"VEC2"
		},
		{
			"bufferView":11,
			"componentType":5126,
			"count":24,
			"max":[
				1.513099193572998,
				0.5479865074157715,
				0.9714689254760742
			],
			"min":[
				-1.513099193572998,
				-0.5479865074157715,
				-0.9714689254760742
			],
			"type":"VEC3"
		},
		{
			"bufferView":12,
			"componentType":5126,
			"count":24,
			"type":"VEC3"
		},
		{
			"bufferView":13,
			"componentType":5126,
			"count":24,
			"type":"VEC2"
		},
		{
			"bufferView":14,
			"componentType":5126,
			"count":24,
			"max":[
				0.3368358612060547,
				0.419114351272583,
				1.0869240760803223
			],
			"min":[
				-0.3368358612060547,
				-0.419114351272583,
				-1.0869240760803223
			],
			"type":"VEC3"
		},
		{
			"bufferView":15,
			"componentType":5126,
			"count":24,
			"type":"VEC3"
		},
		{
			"bufferView":16,
			"componentType":5126,
			"count":24,
			"type":"VEC2"
		},
		{
			"bufferView":17,
			"componentType":5126,
			"count":24,
			"max":[
				1.460343360900879,
				0.8136317729949951,
				1.7126717567443848
			],
			"min":[
				-1.460343360900879,
				-0.8136317729949951,
				-1.7126717567443848
			],
			"type":"VEC3"
		},
		{
			"bufferView":18,
			"componentType":5126,
			"count":24,
			"type":"VEC3"
		},
		{
			"bufferView":19,
			"componentType":5126,
			"count":24,
			"type":"VEC2"
		},
		{
			"bufferView":20,
			"componentType":5126,
			"count":24,
			"max":[
				0.8050994873046875,
				0.7655301094055176,
				0.9547324180603027
			],
			"min":[
				-0.8050994873046875,
				-0.7655301094055176,
				-0.9547324180603027
			],
			"type":"VEC3"
		},
		{
			"bufferView":21,
			"componentType":5126,
			"count":24,
			"type":"VEC3"
		},
		{
			"bufferView":22,
			"componentType":5126,
			"count":24,
			"type":"VEC2"
		},
		{
			"bufferView":23,
			"componentType":5126,
			"count":24,
			"max":[
				0.8521819114685059,
				1.8669328689575195,
				0.4470052719116211
			],
			"min":[
				-0.8521819114685059,
				-1.8669328689575195,
				-0.4470052719116211
			],
			"type":"VEC3"
		},
		{
			"bufferView":24,
			"componentType":5126,
			"count":24,
			"type":"VEC3"
		},
		{
			"bufferView":25,
			"componentType":5126,
			"count":24,
			"type":"VEC2"
		},
		{
			"bufferView":26,
			"componentType":5126,
			"count":24,
			"max":[
				2.1379928588867188,
				0.9825942516326904,
				0.13768434524536133
			],
			"min":[
				-2.1379928588867188,
				-0.9825942516326904,
				-0.13768434524536133
			],
			"type":"VEC3"
		},
		{
			"bufferView":27,
			"componentType":5126,
			"count":24,
			"type":"VEC3"
		},
		{
			"bufferView":28,
			"componentType":5126,
			"count":24,
			"type":"VEC2"
		},
		{
			"bufferView":29,
			"componentType":5126,
			"count":24,
			"max":[
				10.185688018798828,
				4.081489562988281,
				4.603477478027344
			],
			"min":[
				-10.185688018798828,
				-4.081489562988281,
				-4.603477478027344
			],
			"type":"VEC3"
		},
		{
			"bufferView":30,
			"componentType":5126,
			"count":24,
			"type":"VEC3"
		},
		{
			"bufferView":31,
			"componentType":5126,
			"count":24,
			"type":"VEC2"
		},
		{
			"bufferView":32,
			"componentType":5126,
			"count":24,
			"max":[
				2.9308810234069824,
				2.3375916481018066,
				3.15488338470459
			],
			"min":[
				-2.9308810234069824,
				-2.3375916481018066,
				-3.15488338470459
			],
			"type":"VEC3"
		},
		{
			"bufferView":33,
			"componentType":5126,
			"count":24,
			"type":"VEC3"
		},
		{
			"bufferView":34,
			"componentType":5126,
			"count":24,
			"type":"VEC2"
		},
		{
			"bufferView":35,
			"componentType":5126,
			"count":24,
			"max":[
				1.0643019676208496,
				3.4273719787597656,
				5.404937267303467
			],
			"min":[
				-1.0643019676208496,
				-3.4273719787597656,
				-5.404937267303467
			],
			"type":"VEC3"
		},
		{
			"bufferView":36,
			"componentType":5126,
			"count":24,
			"type":"VEC3"
		},
		{
			"bufferView":37,
			"componentType":5126,
			"count":24,
			"type":"VEC2"
		}
	],
	"bufferViews":[
		{
			"buffer":0,
			"byteLength":1440,
			"byteOffset":0,
			"target":34962
		},
		{
			"buffer":0,
			"byteLength":1440,
			"byteOffset":1440,
			"target":34962
		},
		{
			"buffer":0,
			"byteLength":960,
			"byteOffset":2880,
			"target":34962
		},
		{
			"buffer":0,
			"byteLength":360,
			"byteOffset":3840,
			"target":34963
		},
		{
			"buffer":0,
			"byteLength":288,
			"byteOffset":4200,
			"target":34962
		},
		{
			"buffer":0,
			"byteLength":288,
			"byteOffset":4488,
			"target":34962
		},
		{
			"buffer":0,
			"byteLength":192,
			"byteOffset":4776,
			"target":34962
		},
		{
			"buffer":0,
			"byteLength":72,
			"byteOffset":4968,
			"target":34963
		},
		{
			"buffer":0,
			"byteLength":288,
			"byteOffset":5040,
			"target":34962
		},
		{
			"buffer":0,
			"byteLength":288,
			"byteOffset":5328,
			"target":34962
		},
		{
			"buffer":0,
			"byteLength":192,
			"byteOffset":5616,
			"target":34962
		},
		{
			"buffer":0,
			"byteLength":288,
			"byteOffset":5808,
			"target":34962
		},
		{
			"buffer":0,
			"byteLength":288,
			"byteOffset":6096,
			"target":34962
		},
		{
			"buffer":0,
			"byteLength":192,
			"byteOffset":6384,
			"target":34962
		},
		{
			"buffer":0,
			"byteLength":288,
			"byteOffset":6576,
			"target":34962
		},
		{
			"buffer":0,
			"byteLength":288,
			"byteOffset":6864,
			"target":34962
		},
		{
			"buffer":0,
			"byteLength":192,
			"byteOffset":7152,
			"target":34962
		},
		{
			"buffer":0,
			"byteLength":288,
			"byteOffset":7344,
			"target":34962
		},
		{
			"buffer":0,
			"byteLength":288,
			"byteOffset":7632,
			"target":34962
		},
		{
			"buffer":0,
			"byteLength":192,
			"byteOffset":7920,
			"target":34962
		},
		{
			"buffer":0,
			"byteLength":288,
			"byteOffset":8112,
			"target":34962
		},
		{
			"buffer":0,
			"byteLength":288,
			"byteOffset":8400,
			"target":34962
		},
		{
			"buffer":0,
			"byteLength":192,
			"byteOffset":8688,
			"target":34962
		},
		{
			"buffer":0,
			"byteLength":288,
			"byteOffset":8880,
			"target":34962
		},
		{
			"buffer":0,
			"byteLength":288,
			"byteOffset":9168,
			"target":34962
		},
		{
			"buffer":0,
			"byteLength":192,
			"byteOffset":9456,
			"target":34962
		},
		{
			"buffer":0,
			"byteLength":288,
			"byteOffset":9648,
			"target":34962
		},
		{
			"buffer":0,
			"byteLength":288,
			"byteOffset":9936,
			"target":34962
		},
		{
			"buffer":0,
			"byteLength":192,
			"byteOffset":10224,
			"target":34962
		},
		{
			"buffer":0,
			"byteLength":288,
			"byteOffset":10416,
			"target":34962
		},
		{
			"buffer":0,
			"byteLength":288,
			"byteOffset":10704,
			"target":34962
		},
		{
			"buffer":0,
			"byteLength":192,
			"byteOffset":10992,
			"target":34962
		},
		{
			"buffer":0,
			"byteLength":288,
			"byteOffset":11184,
			"target":34962
		},
		{
			"buffer":0,
			"byteLength":288,
			"byteOffset":11472,
			"target":34962
		},
		{
			"buffer":0,
			"byteLength":192,
			"byteOffset":11760,
			"target":34962
		},
		{
			"buffer":0,
			"byteLength":288,
			"byteOffset":11952,
			"target":34962
		},
		{
			"buffer":0,
			"byteLength":288,
			"byteOffset":12240,
			"target":34962
		},
		{
			"buffer":0,
			"byteLength":192,
			"byteOffset":12528,
			"target":34962
		}
	],
	"buffers":[
		{
			"byteLength":12720,
			"uri":"test.bin"
		}
	]
}
